<svg width="21" height="22" viewBox="0 0 21 22" fill="none" xmlns="http://www.w3.org/2000/svg">
    <path fill-rule="evenodd" clip-rule="evenodd"
          d="M3.09578 5.92233C3.09578 4.63341 4.14115 3.58804 5.42904 3.58804H6.49092C7.10596 3.58804 7.69727 3.3445 8.13482 2.91005L8.8768 2.16704C9.78595 1.25376 11.2637 1.24963 12.177 2.15878L12.1863 2.16704L12.9293 2.91005C13.3658 3.3445 13.9571 3.58804 14.5732 3.58804H15.634C16.923 3.58804 17.9683 4.63341 17.9683 5.92233V6.98214C17.9683 7.59925 18.2119 8.18953 18.6463 8.62708L19.3893 9.37009C20.3026 10.2792 20.3078 11.756 19.3986 12.6703L19.3893 12.6796L18.6463 13.4226C18.2119 13.8581 17.9683 14.4504 17.9683 15.0654V16.1273C17.9683 17.4162 16.923 18.4606 15.634 18.4606H14.5732C13.9571 18.4606 13.3658 18.7052 12.9293 19.1396L12.1863 19.8816C11.2782 20.7959 9.8004 20.8 8.88609 19.8909C8.88299 19.8878 8.87989 19.8847 8.8768 19.8816L8.13482 19.1396C7.69727 18.7052 7.10596 18.4606 6.49092 18.4606H5.42904C4.14115 18.4606 3.09578 17.4162 3.09578 16.1273V15.0654C3.09578 14.4504 2.85121 13.8581 2.41676 13.4226L1.67478 12.6796C0.760468 11.7704 0.75634 10.2927 1.66549 9.37938L1.67478 9.37009L2.41676 8.62708C2.85121 8.18953 3.09578 7.59925 3.09578 6.98214V5.92233Z"
          stroke="black" stroke-width="1.16095" stroke-linecap="round" stroke-linejoin="round"/>
    <path opacity="0.4" d="M7.87964 13.6763L13.1839 8.37207" stroke="black" stroke-width="1.16095"
          stroke-linecap="round" stroke-linejoin="round"/>
    <path opacity="0.4"
          d="M13.1805 14.4519C12.9741 14.4519 12.778 14.3694 12.6335 14.2249C12.5613 14.1527 12.5097 14.0598 12.4684 13.9669C12.4271 13.874 12.4065 13.7822 12.4065 13.678C12.4065 13.5748 12.4271 13.4716 12.4684 13.3787C12.5097 13.2858 12.5613 13.2033 12.6335 13.131C12.9225 12.8421 13.4384 12.8421 13.7274 13.131C13.7996 13.2033 13.8616 13.2858 13.9028 13.3787C13.9338 13.4716 13.9544 13.5748 13.9544 13.678C13.9544 13.7822 13.9338 13.874 13.9028 13.9669C13.8616 14.0598 13.7996 14.1527 13.7274 14.2249C13.5829 14.3694 13.3869 14.4519 13.1805 14.4519Z"
          fill="black"/>
    <path opacity="0.4"
          d="M7.87651 9.14947C7.77331 9.14947 7.68043 9.1278 7.58756 9.08652C7.49468 9.04524 7.40181 8.99468 7.32957 8.92244C7.25733 8.83988 7.20573 8.75733 7.16446 8.66445C7.12318 8.57054 7.10254 8.4787 7.10254 8.3755C7.10254 8.27128 7.12318 8.16911 7.16446 8.07624C7.20573 7.98336 7.25733 7.89049 7.32957 7.82857C7.62884 7.53859 8.13449 7.53859 8.42344 7.82857C8.56792 7.97201 8.65047 8.16911 8.65047 8.3755C8.65047 8.4787 8.64015 8.57054 8.59887 8.66445C8.5576 8.75733 8.49568 8.83988 8.42344 8.92244C8.35121 8.99468 8.26865 9.04524 8.17577 9.08652C8.0829 9.1278 7.9797 9.14947 7.87651 9.14947Z"
          fill="black"/>
</svg>
